<svg width="989.212" height="97.51" viewBox="0 0 989.212 97.51" xmlns="http://www.w3.org/2000/svg"><g id="svgGroup" stroke-linecap="round" fill-rule="evenodd" font-size="9pt" stroke="#000" stroke-width="0.25mm" fill="none" style="stroke:#000;stroke-width:0.25mm;fill:#1c217c"><path d="M 592.92 76.172 L 574.365 76.172 L 574.365 73.535 L 582.324 73.535 L 582.324 7.715 L 574.365 7.715 L 574.365 5.078 L 582.324 5.078 L 586.084 5.078 L 615.186 71.973 L 615.479 71.973 L 644.678 5.078 L 656.494 5.078 L 656.494 7.715 L 648.535 7.715 L 648.535 73.535 L 656.494 73.535 L 656.494 76.172 L 637.939 76.172 L 637.939 73.535 L 645.898 73.535 L 645.898 34.912 L 645.898 9.717 L 645.605 9.619 L 616.406 76.172 L 614.307 76.172 L 585.254 9.961 L 584.961 10.059 L 584.961 33.594 L 584.961 73.535 L 592.92 73.535 L 592.92 76.172 Z M 25.439 76.172 L 22.461 76.172 L 4.932 7.715 L 0 7.715 L 0 5.078 L 15.625 5.078 L 15.625 7.715 L 7.813 7.715 L 20.947 60.059 L 24.023 71.24 L 24.316 71.24 L 27.393 60.059 L 45.166 5.078 L 48.096 5.078 L 65.771 60.059 L 68.799 71.24 L 69.092 71.24 L 72.266 60.059 L 85.254 7.715 L 77.49 7.715 L 77.49 5.078 L 93.066 5.078 L 93.066 7.715 L 88.135 7.715 L 70.654 76.172 L 67.676 76.172 L 49.072 16.895 L 46.729 9.814 L 46.436 9.814 L 44.189 16.895 L 25.439 76.172 Z M 306.348 76.172 L 287.744 76.172 L 287.744 73.535 L 295.703 73.535 L 295.703 25.977 L 287.744 25.977 L 287.744 23.34 L 297.998 23.34 L 298.34 34.229 A 21.696 21.696 0 0 1 301.475 28.965 A 18.379 18.379 0 0 1 305.225 25.488 A 17.223 17.223 0 0 1 312.279 22.676 A 23.197 23.197 0 0 1 316.162 22.363 A 21.897 21.897 0 0 1 320.929 22.854 Q 324.485 23.647 327.103 25.719 A 14.059 14.059 0 0 1 327.271 25.854 A 14.861 14.861 0 0 1 330.923 30.376 Q 331.979 32.333 332.687 34.783 A 29.955 29.955 0 0 1 333.154 36.621 A 24.374 24.374 0 0 1 335.603 31.121 A 19.063 19.063 0 0 1 340.015 26.099 A 17.187 17.187 0 0 1 347.981 22.631 A 23.43 23.43 0 0 1 351.904 22.314 A 21.283 21.283 0 0 1 357.303 22.959 A 14.461 14.461 0 0 1 365.186 28.027 Q 369.542 33.509 369.719 45.013 A 64.036 64.036 0 0 1 369.727 45.996 L 369.727 73.486 L 377.686 73.486 L 377.686 76.123 L 359.082 76.123 L 359.082 73.486 L 367.041 73.486 L 367.041 45.898 A 51.215 51.215 0 0 0 366.785 40.582 Q 366.016 33.24 362.939 29.688 A 13.475 13.475 0 0 0 353.26 24.993 A 18.678 18.678 0 0 0 352.002 24.951 Q 345.111 24.951 340.981 28.353 A 13.277 13.277 0 0 0 339.307 30.005 A 21.865 21.865 0 0 0 335.097 37.826 A 29.504 29.504 0 0 0 334.033 42.871 L 334.033 73.535 L 341.992 73.535 L 341.992 76.172 L 323.389 76.172 L 323.389 73.535 L 331.348 73.535 L 331.348 45.947 A 51.568 51.568 0 0 0 331.091 40.611 Q 330.322 33.246 327.246 29.712 A 13.48 13.48 0 0 0 317.835 25.065 A 18.776 18.776 0 0 0 316.26 25 Q 309.698 25 305.666 28.078 A 13 13 0 0 0 303.809 29.81 A 21.364 21.364 0 0 0 299.7 36.937 A 29.434 29.434 0 0 0 298.389 42.285 L 298.389 73.535 L 306.348 73.535 L 306.348 76.172 Z M 670.068 96.973 L 670.508 94.482 A 6.333 6.333 0 0 0 670.852 94.565 Q 671.231 94.645 671.772 94.726 A 28.528 28.528 0 0 0 672.119 94.775 A 24.797 24.797 0 0 0 672.626 94.839 Q 673.34 94.922 673.779 94.922 A 12.332 12.332 0 0 0 676.634 94.61 A 8.221 8.221 0 0 0 680.786 92.285 A 15.52 15.52 0 0 0 682.593 89.951 Q 683.402 88.691 684.141 87.119 A 36.515 36.515 0 0 0 685.254 84.473 L 688.428 75.879 L 668.408 25.977 L 662.646 25.977 L 662.646 23.34 L 678.223 23.34 L 678.223 25.977 L 671.289 25.977 L 687.646 66.602 L 689.6 71.875 L 689.893 71.875 L 707.422 25.977 L 700.488 25.977 L 700.488 23.34 L 716.113 23.34 L 716.113 25.977 L 710.352 25.977 L 687.891 84.961 A 48.698 48.698 0 0 1 686.407 88.452 A 36.769 36.769 0 0 1 684.79 91.504 A 13.284 13.284 0 0 1 682.261 94.621 A 11.938 11.938 0 0 1 680.518 95.923 A 9.944 9.944 0 0 1 677.748 97.062 Q 676.535 97.37 675.114 97.466 A 19.77 19.77 0 0 1 673.779 97.51 A 11.779 11.779 0 0 1 672.803 97.467 A 15.967 15.967 0 0 1 671.729 97.339 A 18.872 18.872 0 0 1 671.204 97.252 Q 670.471 97.119 670.068 96.973 Z M 951.904 70.215 L 951.904 60.791 L 954.541 60.791 L 954.541 68.75 Q 957.422 71.826 961.67 73.193 A 29.011 29.011 0 0 0 970.211 74.558 A 32.582 32.582 0 0 0 970.654 74.561 A 25.47 25.47 0 0 0 975.332 74.157 Q 978.038 73.651 980.183 72.511 A 13.624 13.624 0 0 0 982.275 71.143 Q 986.572 67.725 986.572 63.232 A 9.638 9.638 0 0 0 984.637 57.473 A 13.936 13.936 0 0 0 982.983 55.591 A 13.926 13.926 0 0 0 980.094 53.515 Q 976.497 51.515 970.459 50.195 A 63.193 63.193 0 0 1 965.667 49.009 Q 960.021 47.356 957.153 45.068 A 10.274 10.274 0 0 1 953.423 38.687 A 15.525 15.525 0 0 1 953.174 35.84 A 12.022 12.022 0 0 1 955.225 28.979 A 13.123 13.123 0 0 1 959.067 25.265 A 16.93 16.93 0 0 1 961.108 24.146 A 18.366 18.366 0 0 1 965.587 22.755 Q 967.608 22.388 969.907 22.365 A 30.837 30.837 0 0 1 970.215 22.363 A 27.878 27.878 0 0 1 975.387 22.822 A 21.174 21.174 0 0 1 980.2 24.316 A 22.542 22.542 0 0 1 985.927 27.988 A 20.797 20.797 0 0 1 987.5 29.541 L 987.5 39.404 L 984.863 39.404 L 984.863 30.859 A 17.248 17.248 0 0 0 978.857 26.514 A 16.596 16.596 0 0 0 975.497 25.479 Q 973.867 25.15 971.982 25.047 A 32.436 32.436 0 0 0 970.215 25 A 24.73 24.73 0 0 0 966.172 25.308 Q 964.054 25.66 962.367 26.413 A 10.836 10.836 0 0 0 959.424 28.32 A 12.804 12.804 0 0 0 957.293 30.808 A 8.965 8.965 0 0 0 955.811 35.742 A 11.369 11.369 0 0 0 956.11 38.403 A 9.121 9.121 0 0 0 957.007 40.723 A 7.066 7.066 0 0 0 958.329 42.392 Q 959.017 43.046 959.942 43.649 A 16.88 16.88 0 0 0 961.523 44.556 A 23.334 23.334 0 0 0 963.899 45.582 Q 966.429 46.528 970.032 47.38 A 86.679 86.679 0 0 0 971.24 47.656 A 51.901 51.901 0 0 1 976.37 49.044 Q 978.918 49.885 980.968 50.923 A 20.92 20.92 0 0 1 984.668 53.271 A 11.89 11.89 0 0 1 989.155 61.925 A 16.587 16.587 0 0 1 989.209 63.281 Q 989.209 69.482 984.131 73.34 Q 979.573 76.802 972.342 77.157 A 34.423 34.423 0 0 1 970.654 77.197 A 31.289 31.289 0 0 1 963.643 76.436 A 27.047 27.047 0 0 1 960.034 75.342 A 24.738 24.738 0 0 1 954.947 72.723 A 20.828 20.828 0 0 1 951.904 70.215 Z M 179.248 50.781 L 179.248 48.73 A 39.051 39.051 0 0 1 179.834 41.804 A 28.919 28.919 0 0 1 181.958 34.888 A 24.193 24.193 0 0 1 185.416 29.337 A 20.29 20.29 0 0 1 189.453 25.659 A 18.734 18.734 0 0 1 199.67 22.376 A 22.849 22.849 0 0 1 200.439 22.363 Q 206.396 22.363 211.157 24.878 A 29.515 29.515 0 0 1 216.37 28.351 A 25.041 25.041 0 0 1 219.092 31.006 L 219.092 42.334 L 216.455 42.334 L 216.455 31.982 A 22.855 22.855 0 0 0 209.375 26.831 A 19.812 19.812 0 0 0 203.185 25.145 A 24.527 24.527 0 0 0 200.488 25 A 17.276 17.276 0 0 0 194.584 25.985 A 15.662 15.662 0 0 0 190.723 28.027 A 18.837 18.837 0 0 0 185.395 34.023 A 23.702 23.702 0 0 0 184.204 36.401 A 27.532 27.532 0 0 0 182.268 43.327 A 36.627 36.627 0 0 0 181.885 48.73 L 181.885 50.781 A 35.974 35.974 0 0 0 182.4 57.008 A 27.115 27.115 0 0 0 184.229 63.184 A 21.783 21.783 0 0 0 187.145 68.093 A 18.011 18.011 0 0 0 190.796 71.558 A 16.256 16.256 0 0 0 199.204 74.508 A 20.347 20.347 0 0 0 200.684 74.561 Q 207.471 74.561 212.085 71.094 A 13.034 13.034 0 0 0 216.429 65.2 Q 217.204 63.188 217.536 60.73 A 25.076 25.076 0 0 0 217.578 60.4 L 219.824 60.4 L 219.922 60.693 A 22.975 22.975 0 0 1 219.026 65.104 A 16.923 16.923 0 0 1 216.748 69.8 A 16.146 16.146 0 0 1 210.034 75.342 A 20.744 20.744 0 0 1 204.543 76.914 A 27.288 27.288 0 0 1 200.537 77.197 A 18.785 18.785 0 0 1 189.648 73.877 A 21.647 21.647 0 0 1 183.347 67.095 A 26.961 26.961 0 0 1 182.031 64.624 A 28.752 28.752 0 0 1 179.716 56.937 A 38.769 38.769 0 0 1 179.248 50.781 Z M 752.441 76.172 L 721.289 76.172 L 721.289 73.535 L 729.248 73.535 L 729.248 7.715 L 721.289 7.715 L 721.289 5.078 L 729.248 5.078 L 747.949 5.078 A 43.48 43.48 0 0 1 754.365 5.522 Q 757.819 6.038 760.621 7.156 A 19.614 19.614 0 0 1 765.088 9.619 A 14.671 14.671 0 0 1 770.804 18.981 A 22.756 22.756 0 0 1 771.191 23.291 A 20.398 20.398 0 0 1 770.571 28.441 A 15.683 15.683 0 0 1 767.92 33.984 A 13.754 13.754 0 0 1 760.487 38.989 A 18.359 18.359 0 0 1 758.691 39.404 A 17.999 17.999 0 0 1 766.699 42.456 A 18.354 18.354 0 0 1 772.339 48.608 A 16.006 16.006 0 0 1 774.414 56.592 A 23.115 23.115 0 0 1 773.669 62.63 A 16.381 16.381 0 0 1 768.384 71.045 A 20.781 20.781 0 0 1 759.593 75.39 Q 756.313 76.172 752.441 76.172 Z M 98.828 51.758 L 98.828 48.633 A 35.185 35.185 0 0 1 99.591 41.158 A 28.24 28.24 0 0 1 101.611 35.132 A 24.988 24.988 0 0 1 105.399 29.253 A 21.657 21.657 0 0 1 109.253 25.781 Q 114.111 22.363 120.264 22.363 A 22.525 22.525 0 0 1 125.838 23.026 A 18.2 18.2 0 0 1 130.688 25.024 Q 135.156 27.686 137.622 32.52 A 22.022 22.022 0 0 1 139.665 38.788 A 30.058 30.058 0 0 1 140.088 43.945 L 140.088 47.998 L 101.465 47.998 L 101.465 51.758 A 29.453 29.453 0 0 0 102.168 58.317 A 24.023 24.023 0 0 0 103.955 63.452 A 21.148 21.148 0 0 0 107.927 69.161 A 19.277 19.277 0 0 0 110.84 71.582 A 17.372 17.372 0 0 0 120.283 74.552 A 21.156 21.156 0 0 0 120.898 74.561 A 24.847 24.847 0 0 0 125.606 74.134 A 19.175 19.175 0 0 0 129.81 72.827 A 23.346 23.346 0 0 0 136.719 68.115 L 138.135 70.166 Q 134.863 73.291 130.713 75.244 A 19.861 19.861 0 0 1 125.643 76.81 A 27.633 27.633 0 0 1 120.898 77.197 A 21.16 21.16 0 0 1 113.412 75.897 A 19.633 19.633 0 0 1 109.57 73.95 A 22.178 22.178 0 0 1 102.364 66.191 A 26.672 26.672 0 0 1 101.709 64.966 A 26.838 26.838 0 0 1 99.169 56.689 A 34.571 34.571 0 0 1 98.828 51.758 Z M 385.059 51.758 L 385.059 48.633 A 35.185 35.185 0 0 1 385.821 41.158 A 28.24 28.24 0 0 1 387.842 35.132 A 24.988 24.988 0 0 1 391.63 29.253 A 21.657 21.657 0 0 1 395.483 25.781 Q 400.342 22.363 406.494 22.363 A 22.525 22.525 0 0 1 412.069 23.026 A 18.2 18.2 0 0 1 416.919 25.024 Q 421.387 27.686 423.853 32.52 A 22.022 22.022 0 0 1 425.896 38.788 A 30.058 30.058 0 0 1 426.318 43.945 L 426.318 47.998 L 387.695 47.998 L 387.695 51.758 A 29.453 29.453 0 0 0 388.398 58.317 A 24.023 24.023 0 0 0 390.186 63.452 A 21.148 21.148 0 0 0 394.158 69.161 A 19.277 19.277 0 0 0 397.07 71.582 A 17.372 17.372 0 0 0 406.513 74.552 A 21.156 21.156 0 0 0 407.129 74.561 A 24.847 24.847 0 0 0 411.837 74.134 A 19.175 19.175 0 0 0 416.04 72.827 A 23.346 23.346 0 0 0 422.949 68.115 L 424.365 70.166 Q 421.094 73.291 416.943 75.244 A 19.861 19.861 0 0 1 411.873 76.81 A 27.633 27.633 0 0 1 407.129 77.197 A 21.16 21.16 0 0 1 399.643 75.897 A 19.633 19.633 0 0 1 395.801 73.95 A 22.178 22.178 0 0 1 388.595 66.191 A 26.672 26.672 0 0 1 387.939 64.966 A 26.838 26.838 0 0 1 385.399 56.689 A 34.571 34.571 0 0 1 385.059 51.758 Z M 469.385 62.549 L 469.385 26.025 L 459.619 26.025 L 459.619 23.34 L 469.385 23.34 L 469.385 9.082 L 472.07 9.082 L 472.07 23.34 L 485.059 23.34 L 485.059 26.025 L 472.07 26.025 L 472.07 62.549 A 30.325 30.325 0 0 0 472.225 65.735 Q 472.654 69.776 474.268 71.802 A 6.977 6.977 0 0 0 479.305 74.528 A 8.897 8.897 0 0 0 480.078 74.561 Q 481.421 74.561 482.511 74.488 A 25.478 25.478 0 0 0 482.861 74.463 Q 483.796 74.388 485.274 74.227 A 195.827 195.827 0 0 0 486.23 74.121 L 486.719 76.514 A 18.407 18.407 0 0 1 483.716 77.051 Q 482.28 77.188 480.482 77.197 A 50.986 50.986 0 0 1 480.225 77.197 A 12.994 12.994 0 0 1 476.938 76.806 A 8.787 8.787 0 0 1 472.144 73.73 Q 469.622 70.562 469.405 63.844 A 40.168 40.168 0 0 1 469.385 62.549 Z M 168.848 76.172 L 150.293 76.172 L 150.293 73.535 L 158.252 73.535 L 158.252 2.637 L 150.293 2.637 L 150.293 0 L 160.889 0 L 160.889 73.535 L 168.848 73.535 L 168.848 76.172 Z M 912.109 76.172 L 893.555 76.172 L 893.555 73.535 L 901.514 73.535 L 901.514 2.637 L 893.555 2.637 L 893.555 0 L 904.15 0 L 904.15 73.535 L 912.109 73.535 L 912.109 76.172 Z M 232.08 50.781 L 232.08 48.73 A 34.964 34.964 0 0 1 232.79 41.532 A 27.274 27.274 0 0 1 235.01 35.034 A 23.714 23.714 0 0 1 239.971 28.219 A 22.085 22.085 0 0 1 243.14 25.732 A 21.011 21.011 0 0 1 252.874 22.463 A 26.147 26.147 0 0 1 255.176 22.363 A 23.788 23.788 0 0 1 262.004 23.311 A 20.268 20.268 0 0 1 267.261 25.732 A 22.698 22.698 0 0 1 275.016 34.303 A 27.121 27.121 0 0 1 275.391 35.034 A 28.009 28.009 0 0 1 277.942 43.387 A 36.442 36.442 0 0 1 278.32 48.73 L 278.32 50.781 A 34.968 34.968 0 0 1 277.588 58.093 A 27.443 27.443 0 0 1 275.391 64.502 Q 272.461 70.459 267.261 73.828 Q 262.061 77.197 255.273 77.197 A 23.853 23.853 0 0 1 248.427 76.246 A 20.434 20.434 0 0 1 243.164 73.828 A 22.6 22.6 0 0 1 235.385 65.236 A 27.036 27.036 0 0 1 235.01 64.502 A 28.273 28.273 0 0 1 232.434 55.961 A 36.642 36.642 0 0 1 232.08 50.781 Z M 495.654 50.781 L 495.654 48.73 A 34.964 34.964 0 0 1 496.364 41.532 A 27.274 27.274 0 0 1 498.584 35.034 A 23.714 23.714 0 0 1 503.546 28.219 A 22.085 22.085 0 0 1 506.714 25.732 A 21.011 21.011 0 0 1 516.448 22.463 A 26.147 26.147 0 0 1 518.75 22.363 A 23.788 23.788 0 0 1 525.578 23.311 A 20.268 20.268 0 0 1 530.835 25.732 A 22.698 22.698 0 0 1 538.59 34.303 A 27.121 27.121 0 0 1 538.965 35.034 A 28.009 28.009 0 0 1 541.516 43.387 A 36.442 36.442 0 0 1 541.895 48.73 L 541.895 50.781 A 34.968 34.968 0 0 1 541.162 58.093 A 27.443 27.443 0 0 1 538.965 64.502 Q 536.035 70.459 530.835 73.828 Q 525.635 77.197 518.848 77.197 A 23.853 23.853 0 0 1 512.001 76.246 A 20.434 20.434 0 0 1 506.738 73.828 A 22.6 22.6 0 0 1 498.959 65.236 A 27.036 27.036 0 0 1 498.584 64.502 A 28.273 28.273 0 0 1 496.008 55.961 A 36.642 36.642 0 0 1 495.654 50.781 Z M 783.789 50.781 L 783.789 48.73 A 34.964 34.964 0 0 1 784.499 41.532 A 27.274 27.274 0 0 1 786.719 35.034 A 23.714 23.714 0 0 1 791.68 28.219 A 22.085 22.085 0 0 1 794.849 25.732 A 21.011 21.011 0 0 1 804.583 22.463 A 26.147 26.147 0 0 1 806.885 22.363 A 23.788 23.788 0 0 1 813.713 23.311 A 20.268 20.268 0 0 1 818.97 25.732 A 22.698 22.698 0 0 1 826.725 34.303 A 27.121 27.121 0 0 1 827.1 35.034 A 28.009 28.009 0 0 1 829.651 43.387 A 36.442 36.442 0 0 1 830.029 48.73 L 830.029 50.781 A 34.968 34.968 0 0 1 829.297 58.093 A 27.443 27.443 0 0 1 827.1 64.502 Q 824.17 70.459 818.97 73.828 Q 813.77 77.197 806.982 77.197 A 23.853 23.853 0 0 1 800.136 76.246 A 20.434 20.434 0 0 1 794.873 73.828 A 22.6 22.6 0 0 1 787.094 65.236 A 27.036 27.036 0 0 1 786.719 64.502 A 28.273 28.273 0 0 1 784.143 55.961 A 36.642 36.642 0 0 1 783.789 50.781 Z M 840.186 50.781 L 840.186 48.73 A 34.964 34.964 0 0 1 840.895 41.532 A 27.274 27.274 0 0 1 843.115 35.034 A 23.714 23.714 0 0 1 848.077 28.219 A 22.085 22.085 0 0 1 851.245 25.732 A 21.011 21.011 0 0 1 860.98 22.463 A 26.147 26.147 0 0 1 863.281 22.363 A 23.788 23.788 0 0 1 870.109 23.311 A 20.268 20.268 0 0 1 875.366 25.732 A 22.698 22.698 0 0 1 883.121 34.303 A 27.121 27.121 0 0 1 883.496 35.034 A 28.009 28.009 0 0 1 886.047 43.387 A 36.442 36.442 0 0 1 886.426 48.73 L 886.426 50.781 A 34.968 34.968 0 0 1 885.693 58.093 A 27.443 27.443 0 0 1 883.496 64.502 Q 880.566 70.459 875.366 73.828 Q 870.166 77.197 863.379 77.197 A 23.853 23.853 0 0 1 856.532 76.246 A 20.434 20.434 0 0 1 851.27 73.828 A 22.6 22.6 0 0 1 843.49 65.236 A 27.036 27.036 0 0 1 843.115 64.502 A 28.273 28.273 0 0 1 840.54 55.961 A 36.642 36.642 0 0 1 840.186 50.781 Z M 275.684 50.781 L 275.684 48.73 A 28.9 28.9 0 0 0 274.59 40.68 A 25.811 25.811 0 0 0 273.145 36.841 A 21.889 21.889 0 0 0 268.296 30.088 A 20.833 20.833 0 0 0 265.991 28.223 A 17.913 17.913 0 0 0 257.075 25.079 A 22.528 22.528 0 0 0 255.176 25 A 20.11 20.11 0 0 0 249.119 25.883 A 17.334 17.334 0 0 0 244.36 28.223 A 21.122 21.122 0 0 0 237.391 36.506 A 24.911 24.911 0 0 0 237.231 36.841 A 27.168 27.168 0 0 0 234.78 46.703 A 32.267 32.267 0 0 0 234.717 48.73 L 234.717 50.781 A 30.274 30.274 0 0 0 235.6 58.217 A 25.843 25.843 0 0 0 237.231 62.817 A 21.454 21.454 0 0 0 241.806 69.306 A 20.232 20.232 0 0 0 244.36 71.387 A 17.985 17.985 0 0 0 252.598 74.409 A 22.997 22.997 0 0 0 255.273 74.561 A 20.229 20.229 0 0 0 261.24 73.71 A 17.238 17.238 0 0 0 266.064 71.362 A 20.931 20.931 0 0 0 272.847 63.434 A 24.797 24.797 0 0 0 273.169 62.769 A 27.049 27.049 0 0 0 275.563 53.608 A 32.643 32.643 0 0 0 275.684 50.781 Z M 539.258 50.781 L 539.258 48.73 A 28.9 28.9 0 0 0 538.164 40.68 A 25.811 25.811 0 0 0 536.719 36.841 A 21.889 21.889 0 0 0 531.87 30.088 A 20.833 20.833 0 0 0 529.565 28.223 A 17.913 17.913 0 0 0 520.649 25.079 A 22.528 22.528 0 0 0 518.75 25 A 20.11 20.11 0 0 0 512.693 25.883 A 17.334 17.334 0 0 0 507.935 28.223 A 21.122 21.122 0 0 0 500.965 36.506 A 24.911 24.911 0 0 0 500.806 36.841 A 27.168 27.168 0 0 0 498.354 46.703 A 32.267 32.267 0 0 0 498.291 48.73 L 498.291 50.781 A 30.274 30.274 0 0 0 499.175 58.217 A 25.843 25.843 0 0 0 500.806 62.817 A 21.454 21.454 0 0 0 505.38 69.306 A 20.232 20.232 0 0 0 507.935 71.387 A 17.985 17.985 0 0 0 516.173 74.409 A 22.997 22.997 0 0 0 518.848 74.561 A 20.229 20.229 0 0 0 524.814 73.71 A 17.238 17.238 0 0 0 529.639 71.362 A 20.931 20.931 0 0 0 536.421 63.434 A 24.797 24.797 0 0 0 536.743 62.769 A 27.049 27.049 0 0 0 539.137 53.608 A 32.643 32.643 0 0 0 539.258 50.781 Z M 827.393 50.781 L 827.393 48.73 A 28.9 28.9 0 0 0 826.299 40.68 A 25.811 25.811 0 0 0 824.854 36.841 A 21.889 21.889 0 0 0 820.005 30.088 A 20.833 20.833 0 0 0 817.7 28.223 A 17.913 17.913 0 0 0 808.784 25.079 A 22.528 22.528 0 0 0 806.885 25 A 20.11 20.11 0 0 0 800.828 25.883 A 17.334 17.334 0 0 0 796.069 28.223 A 21.122 21.122 0 0 0 789.1 36.506 A 24.911 24.911 0 0 0 788.94 36.841 A 27.168 27.168 0 0 0 786.489 46.703 A 32.267 32.267 0 0 0 786.426 48.73 L 786.426 50.781 A 30.274 30.274 0 0 0 787.309 58.217 A 25.843 25.843 0 0 0 788.94 62.817 A 21.454 21.454 0 0 0 793.515 69.306 A 20.232 20.232 0 0 0 796.069 71.387 A 17.985 17.985 0 0 0 804.307 74.409 A 22.997 22.997 0 0 0 806.982 74.561 A 20.229 20.229 0 0 0 812.949 73.71 A 17.238 17.238 0 0 0 817.773 71.362 A 20.931 20.931 0 0 0 824.555 63.434 A 24.797 24.797 0 0 0 824.878 62.769 A 27.049 27.049 0 0 0 827.272 53.608 A 32.643 32.643 0 0 0 827.393 50.781 Z M 883.789 50.781 L 883.789 48.73 A 28.9 28.9 0 0 0 882.696 40.68 A 25.811 25.811 0 0 0 881.25 36.841 A 21.889 21.889 0 0 0 876.402 30.088 A 20.833 20.833 0 0 0 874.097 28.223 A 17.913 17.913 0 0 0 865.18 25.079 A 22.528 22.528 0 0 0 863.281 25 A 20.11 20.11 0 0 0 857.224 25.883 A 17.334 17.334 0 0 0 852.466 28.223 A 21.122 21.122 0 0 0 845.496 36.506 A 24.911 24.911 0 0 0 845.337 36.841 A 27.168 27.168 0 0 0 842.885 46.703 A 32.267 32.267 0 0 0 842.822 48.73 L 842.822 50.781 A 30.274 30.274 0 0 0 843.706 58.217 A 25.843 25.843 0 0 0 845.337 62.817 A 21.454 21.454 0 0 0 849.911 69.306 A 20.232 20.232 0 0 0 852.466 71.387 A 17.985 17.985 0 0 0 860.704 74.409 A 22.997 22.997 0 0 0 863.379 74.561 A 20.229 20.229 0 0 0 869.345 73.71 A 17.238 17.238 0 0 0 874.17 71.362 A 20.931 20.931 0 0 0 880.952 63.434 A 24.797 24.797 0 0 0 881.274 62.769 A 27.049 27.049 0 0 0 883.669 53.608 A 32.643 32.643 0 0 0 883.789 50.781 Z M 731.885 41.064 L 731.885 73.535 L 752.441 73.535 Q 759.491 73.535 764.196 70.799 A 16.136 16.136 0 0 0 766.602 69.092 A 14.523 14.523 0 0 0 771.521 60.059 A 21.247 21.247 0 0 0 771.777 56.689 A 14.532 14.532 0 0 0 769.556 48.804 A 14.81 14.81 0 0 0 765.097 44.304 A 18.703 18.703 0 0 0 763.11 43.164 A 19.252 19.252 0 0 0 758.134 41.526 Q 755.948 41.108 753.45 41.069 A 33.161 33.161 0 0 0 752.93 41.064 L 731.885 41.064 Z M 935.254 25.977 L 903.662 59.277 L 902.783 56.641 L 931.445 26.27 L 931.348 25.977 L 925.537 25.977 L 925.537 23.34 L 941.211 23.34 L 941.211 25.977 L 935.254 25.977 Z M 731.885 7.715 L 731.885 38.428 L 748.926 38.428 Q 755 38.428 759.204 36.949 A 15.645 15.645 0 0 0 763.574 34.644 A 12.12 12.12 0 0 0 768.012 27.61 A 19.347 19.347 0 0 0 768.506 23.096 A 17.704 17.704 0 0 0 767.919 18.399 A 12.321 12.321 0 0 0 763.306 11.597 Q 759.572 8.809 753.283 8.024 A 43.117 43.117 0 0 0 747.949 7.715 L 731.885 7.715 Z M 943.311 76.172 L 927.686 76.172 L 927.686 73.535 L 933.838 73.535 L 933.936 73.291 L 914.453 46.191 L 916.309 44.482 L 937.598 73.535 L 943.311 73.535 L 943.311 76.172 Z M 101.855 45.068 L 102.002 45.361 L 137.451 45.361 L 137.451 43.75 A 23.288 23.288 0 0 0 136.816 38.211 A 19.361 19.361 0 0 0 135.327 34.131 A 16.439 16.439 0 0 0 129.346 27.441 Q 125.488 25 120.264 25 A 15.977 15.977 0 0 0 111.279 27.637 A 19.475 19.475 0 0 0 105.431 33.709 A 23.141 23.141 0 0 0 104.785 34.814 Q 102.295 39.355 101.855 45.068 Z M 388.086 45.068 L 388.232 45.361 L 423.682 45.361 L 423.682 43.75 A 23.288 23.288 0 0 0 423.046 38.211 A 19.361 19.361 0 0 0 421.558 34.131 A 16.439 16.439 0 0 0 415.576 27.441 Q 411.719 25 406.494 25 A 15.977 15.977 0 0 0 397.51 27.637 A 19.475 19.475 0 0 0 391.662 33.709 A 23.141 23.141 0 0 0 391.016 34.814 Q 388.525 39.355 388.086 45.068 Z" vector-effect="non-scaling-stroke"/></g></svg>
